#!OML:ASF F:\twosubjects\two\Thursday\Session 1\justin.ASF
:FULLY-SPECIFIED
:DEGREES
327
root 9.55771 16.5391 -8.16049 4.55301 9.23917 5.21695
lowerback 10.2673 -1.46458 -1.20102
upperback 2.22386 -1.91991 3.5534
thorax -3.2728 -0.931902 4.63121
lowerneck -8.41881 -14.0658 -12.121
upperneck 15.0266 -20.2288 15.0268
head 8.89056 -9.18258 4.47061
rclavicle -1.15295e-014 -2.22639e-014
rhumerus 44.8991 37.473 -47.5329
rradius 104.213
rwrist 4.80963
rhand -21.3317 13.8018
rfingers 7.12502
rthumb 5.05403 -16.1179
lclavicle -1.15295e-014 -2.22639e-014
lhumerus -7.58734 7.3151 85.1784
lradius 122.699
lwrist 29.6277
lhand -21.063 43.4078
lfingers 7.12502
lthumb 5.31352 73.3212
rfemur -38.1356 -7.1417 -2.08585
rtibia 43.1639
rfoot -4.70234 -4.67571
rtoes -35.6528
lfemur -4.77311 -5.86395 -0.0484455
ltibia 35.873
lfoot -5.80842 -11.8343
ltoes -38.7648
328
root 9.51858 16.5463 -8.15458 4.54537 10.0418 4.90396
lowerback 10.1474 -1.59284 -0.737067
upperback 2.26838 -2.04393 3.50417
thorax -3.16793 -0.998789 4.32472
lowerneck -8.29196 -14.1479 -12.1859
upperneck 15.0445 -20.4039 15.2851
head 8.93867 -9.25332 4.54192
rclavicle 7.55382e-015 1.90833e-014
rhumerus 44.2798 37.8645 -48.2628
rradius 104.55
rwrist 5.29889
rhand -21.0204 13.7746
rfingers 7.12502
rthumb 5.35462 -16.1378
lclavicle 7.55382e-015 1.90833e-014
lhumerus -8.05954 7.5639 84.9673
lradius 123.077
lwrist 29.711
lhand -20.5656 43.2783
lfingers 7.12502
lthumb 5.79381 73.1791
rfemur -37.8613 -7.3551 -1.76402
rtibia 43.2927
rfoot -4.86479 -5.00828
rtoes -36.1119
lfemur -5.32351 -6.27193 0.576529
ltibia 35.9528
lfoot -5.61218 -12.2102
ltoes -39.1976
329
root 9.47683 16.5582 -8.1454 4.50349 10.8206 4.9512
lowerback 10.3122 -1.62292 -0.697963
upperback 2.21716 -2.08 3.3895
thorax -3.31533 -1.01392 4.19471
lowerneck -8.05209 -14.2308 -12.2356
upperneck 14.8901 -20.5711 15.5697
head 8.90914 -9.33049 4.62972
rclavicle 2.42517e-014 1.11319e-014
rhumerus 43.2287 37.7896 -49.6151
rradius 104.402
rwrist 4.25948
rhand -19.5787 18.451
rfingers 7.12502
rthumb 6.74655 -11.4215
lclavicle 2.42517e-014 1.11319e-014
lhumerus -8.67792 7.57839 84.9169
lradius 123.406
lwrist 29.9488
lhand -20.685 43.0934
lfingers 7.12502
lthumb 5.67847 72.9974
rfemur -37.4771 -7.66378 -1.80332
rtibia 43.4391
rfoot -4.99662 -5.15692
rtoes -36.9474
lfemur -5.72797 -6.69626 0.780646
ltibia 35.9857
lfoot -4.78188 -12.731
ltoes -38.1552
330
root 9.43802 16.5638 -8.13917 4.5949 11.4422 5.31791
lowerback 10.4951 -1.56318 -0.853293
upperback 2.06046 -2.02217 3.14662
thorax -3.58775 -0.978443 4.03207
lowerneck -7.53488 -14.2616 -12.3269
upperneck 14.5085 -20.6479 15.8639
head 8.74563 -9.39248 4.76302
rclavicle -4.09496e-014 1.59028e-014
rhumerus 42.8061 38.84 -49.4893
rradius 105.359
rwrist 5.67437
rhand -21.1697 14.1092
rfingers 7.12502
rthumb 5.21045 -15.8067
lclavicle -4.09496e-014 1.59028e-014
lhumerus -9.594 7.47165 84.8256
lradius 123.827
lwrist 30.2222
lhand -20.7505 43.1499
lfingers 7.12502
lthumb 5.61526 73.0555
rfemur -37.2744 -8.08938 -2.12414
rtibia 43.6251
rfoot -5.04373 -5.25915
rtoes -37.452
lfemur -6.11599 -6.85071 0.640446
ltibia 35.9906
lfoot -3.53169 -13.1065
ltoes -35.9204
331
root 9.40696 16.5603 -8.13742 4.75632 11.9847 5.59147
lowerback 10.5511 -1.49714 -0.906682
upperback 1.94977 -1.94739 2.92624
thorax -3.74582 -0.937906 3.82627
lowerneck -7.12611 -14.3549 -12.3769
upperneck 14.1546 -20.7947 16.0763
head 8.60807 -9.48471 4.84378
rclavicle 3.02153e-014 -1.43125e-014
rhumerus 42.1674 39.1652 -49.9703
rradius 105.583
rwrist 5.41021
rhand -20.9691 14.4455
rfingers 7.12502
rthumb 5.40416 -15.4656
lclavicle 3.02153e-014 -1.43125e-014
lhumerus -10.3317 7.43914 84.7197
lradius 124.178
lwrist 30.1432
lhand -20.6732 42.9375
lfingers 7.12502
lthumb 5.68992 72.8411
rfemur -37.2425 -8.57761 -2.31626
rtibia 43.8442
rfoot -5.08226 -5.45343
rtoes -37.4598
lfemur -6.53434 -6.7845 0.608578
ltibia 35.9837
lfoot -3.27067 -13.373
ltoes -35.2113
332
root 9.38209 16.5579 -8.13602 4.85423 12.4602 5.61731
lowerback 10.6156 -1.38993 -1.21929
upperback 1.85765 -1.82793 3.15377
thorax -3.86862 -0.871004 4.23221
lowerneck -6.79951 -14.4868 -12.76
upperneck 13.826 -20.919 16.1358
head 8.50891 -9.58736 4.91828
rclavicle -1.51076e-014 7.95139e-015
rhumerus 41.643 39.6846 -49.9773
rradius 105.95
rwrist 5.86967
rhand -20.8212 13.4149
rfingers 7.12502
rthumb 5.547 -16.4925
lclavicle -1.51076e-014 7.95139e-015
lhumerus -10.9988 7.69673 85.2275
lradius 124.465
lwrist 29.7455
lhand -20.5689 42.1168
lfingers 7.12502
lthumb 5.79056 72.0177
rfemur -37.2414 -8.99359 -2.24144
rtibia 44.0842
rfoot -5.29943 -5.70127
rtoes -36.8152
lfemur -6.83763 -6.81485 0.755963
ltibia 35.9522
lfoot -3.82743 -13.5534
ltoes -36.2401
333
root 9.35699 16.5545 -8.13254 4.7565 12.8287 5.28028
lowerback 10.78 -1.30449 -1.11196
upperback 1.74731 -1.6914 3.31616
thorax -4.08434 -0.798558 4.33327
lowerneck -6.34689 -14.5546 -12.9451
upperneck 13.5285 -21.0177 16.2948
head 8.38514 -9.66772 5.01217
rclavicle -4.49253e-014 -1.43125e-014
rhumerus 40.6917 40.1926 -50.723
rradius 106.245
rwrist 6.35255
rhand -20.5994 13.6704
rfingers 7.12502
rthumb 5.76114 -16.2313
lclavicle -4.49253e-014 -1.43125e-014
lhumerus -11.8545 8.01289 85.2961
lradius 124.858
lwrist 29.7583
lhand -20.0438 41.6424
lfingers 7.12502
lthumb 6.29755 71.5288
rfemur -37.1711 -9.17959 -1.78463
rtibia 44.3152
rfoot -5.55528 -6.02865
rtoes -36.633
lfemur -6.94408 -6.75144 1.25589
ltibia 35.9042
lfoot -4.3578 -13.7719
ltoes -37.3213
334
root 9.32948 16.5505 -8.13175 4.62527 13.2188 4.97842
lowerback 10.7975 -1.19753 -1.02085
upperback 1.7903 -1.53535 3.39476
thorax -4.06218 -0.722621 4.34248
lowerneck -6.12564 -14.6956 -12.9307
upperneck 13.2142 -21.2169 16.4504
head 8.29106 -9.77388 5.04339
rclavicle -1.07344e-014 6.36111e-015
rhumerus 39.9966 40.4836 -51.2736
rradius 106.567
rwrist 6.30627
rhand -20.1474 15.2052
rfingers 7.12502
rthumb 6.19747 -14.6842
lclavicle -1.07344e-014 6.36111e-015
lhumerus -12.6176 8.2602 85.2082
lradius 125.126
lwrist 29.8719
lhand -19.5677 40.8608
lfingers 7.12502
lthumb 6.75711 70.733
rfemur -37.0342 -9.26312 -1.43242
rtibia 44.5259
rfoot -5.74873 -6.3336
rtoes -36.9737
lfemur -7.06463 -6.62586 1.74111
ltibia 35.8507
lfoot -4.27947 -13.8293
ltoes -36.3556
335
root 9.30875 16.5477 -8.13531 4.64296 13.6664 4.98782
lowerback 10.521 -1.15412 -0.893385
upperback 2.0637 -1.47803 3.22781
thorax -3.63597 -0.706075 4.06994
lowerneck -6.61019 -14.9047 -12.7069
upperneck 13.08 -21.503 16.62
head 8.37464 -9.8634 4.98114
rclavicle 4.37326e-015 -2.8625e-014
rhumerus 39.9467 40.608 -51.5047
rradius 106.866
rwrist 6.26365
rhand -20.0791 16.3586
rfingers 7.12502
rthumb 6.26343 -13.5288
lclavicle 4.37326e-015 -2.8625e-014
lhumerus -12.8551 8.29479 85.0685
lradius 125.123
lwrist 29.3828
lhand -20.1072 39.962
lfingers 7.12502
lthumb 6.23628 69.8502
rfemur -36.9385 -9.55336 -1.47669
rtibia 44.7185
rfoot -5.98346 -6.34688
rtoes -37.0842
lfemur -7.25347 -6.63454 1.86195
ltibia 35.7752
lfoot -4.3404 -13.7928
ltoes -34.7481
336
root 9.29372 16.5363 -8.13903 4.54012 14.0551 4.86295
lowerback 10.5191 -1.13474 -0.68652
upperback 2.31466 -1.43608 3.16419
thorax -3.3834 -0.69298 3.87424
lowerneck -7.42824 -15.0591 -12.5273
upperneck 13.1456 -21.704 16.7364
head 8.56881 -9.89023 4.89589
rclavicle -8.34896e-015 3.02153e-014
rhumerus 39.9529 41.0646 -51.5407
rradius 107.228
rwrist 6.8085
rhand -20.9657 16.151
rfingers 7.12502
rthumb 5.40744 -13.76
lclavicle -8.34896e-015 3.02153e-014
lhumerus -12.9454 8.55483 85.0873
lradius 125.304
lwrist 28.7385
lhand -20.1145 39.948
lfingers 7.12502
lthumb 6.22929 69.8364
rfemur -36.7993 -9.76387 -1.40633
rtibia 44.8953
rfoot -6.18689 -6.30757
rtoes -37.297
lfemur -7.28641 -6.5802 2.11571
ltibia 35.6786
lfoot -4.55669 -13.809
ltoes -33.5509
337
root 9.27904 16.5207 -8.14362 4.31626 14.4152 4.74534
lowerback 10.8315 -1.20499 -0.879182
upperback 2.24198 -1.53839 3.3275
thorax -3.61446 -0.737196 4.18116
lowerneck -7.21983 -14.9116 -12.9218
upperneck 13.0496 -21.4817 16.8896
head 8.52982 -9.81021 5.05498
rclavicle -4.53229e-014 6.36111e-015
rhumerus 39.5258 42.3445 -51.7175
rradius 107.681
rwrist 7.73983
rhand -21.7455 15.0311
rfingers 7.12502
rthumb 4.6545 -14.8977
lclavicle -4.53229e-014 6.36111e-015
lhumerus -13.8093 9.36621 85.0973
lradius 125.302
lwrist 28.6778
lhand -20.1033 38.5674
lfingers 7.12502
lthumb 6.24007 68.4555
rfemur -36.5533 -9.87048 -1.32884
rtibia 45.0449
rfoot -6.17089 -6.05818
rtoes -37.2409
lfemur -7.1988 -6.59846 2.31125
ltibia 35.6022
lfoot -4.27001 -13.4948
ltoes -31.9011
338
root 9.26745 16.512 -8.14998 4.28472 14.8569 4.78044
lowerback 10.7753 -0.766094 -1.18898
upperback 1.85211 -0.995304 3.12108
thorax -4.03108 -0.455146 4.07268
lowerneck -4.93564 -14.9796 -12.3061
upperneck 11.9031 -21.7023 17.1916
head 7.7516 -10.0475 5.21263
rclavicle 3.77691e-014 0
rhumerus 36.6455 42.5389 -53.6732
rradius 108.06
rwrist 8.51297
rhand -21.6561 14.7585
rfingers 7.12502
rthumb 4.74084 -15.1684
lclavicle 3.77691e-014 0
lhumerus -15.0927 8.02994 84.991
lradius 125.475
lwrist 28.3903
lhand -20.4016 37.9
lfingers 7.12502
lthumb 5.95209 67.7964
rfemur -36.4203 -10.259 -1.36172
rtibia 45.1831
rfoot -6.15248 -5.67774
rtoes -36.8605
lfemur -7.27008 -6.67458 2.31483
ltibia 35.5612
lfoot -4.70359 -13.2611
ltoes -32.8911
339
root 9.25871 16.5015 -8.15861 4.21697 15.4147 4.51253
lowerback 10.5997 -1.00419 -0.902245
upperback 2.285 -1.27505 3.37173
thorax -3.46045 -0.608676 4.19733
lowerneck -6.51562 -15.0893 -12.9595
upperneck 12.1539 -21.7232 17.3185
head 8.20751 -9.97366 5.21154
rclavicle 2.62396e-014 2.38542e-014
rhumerus 37.7362 43.1177 -52.9809
rradius 108.378
rwrist 8.61681
rhand -21.5496 14.0523
rfingers 7.12502
rthumb 4.84366 -15.8723
lclavicle 2.62396e-014 2.38542e-014
lhumerus -14.9477 8.80981 85.3268
lradius 125.564
lwrist 27.2898
lhand -21.1553 37.3762
lfingers 7.12502
lthumb 5.22439 67.2918
rfemur -36.2807 -10.6691 -1.11313
rtibia 45.326
rfoot -6.29976 -6.02954
rtoes -36.6347
lfemur -7.45358 -6.56279 2.68672
ltibia 35.5552
lfoot -5.68148 -13.3267
ltoes -34.6162
340
root 9.2562 16.4809 -8.17171 4.06599 16.0056 4.27334
lowerback 10.5305 -0.970337 -0.816732
upperback 2.23042 -1.21781 3.42051
thorax -3.48448 -0.579703 4.19162
lowerneck -5.89472 -15.1807 -12.9422
upperneck 11.758 -21.8849 17.5463
head 8.0219 -10.0871 5.30314
rclavicle 1.82882e-014 -1.74931e-014
rhumerus 37.061 43.5867 -53.3784
rradius 108.773
rwrist 8.83273
rhand -21.5731 12.0979
rfingers 7.12502
rthumb 4.82096 -17.8272
lclavicle 1.82882e-014 -1.74931e-014
lhumerus -15.637 9.006 85.3634
lradius 126.122
lwrist 27.6025
lhand -21.3658 37.5737
lfingers 7.12502
lthumb 5.02117 67.4942
rfemur -36.0521 -10.9783 -0.969719
rtibia 45.4789
rfoot -6.38183 -6.56504
rtoes -36.525
lfemur -7.64217 -6.50753 2.97022
ltibia 35.6032
lfoot -6.09987 -13.03
ltoes -33.9542
